<svg width="49" height="48" viewBox="0 0 49 48" fill="none" xmlns="http://www.w3.org/2000/svg">
<path d="M32.98 44V43C32.98 40.7908 34.8442 39.001 36.8246 38.022C38.7492 37.0708 40.3686 35.5022 40.573 33.6626L40.98 30L44.98 28L39.98 20.5C39.98 11.3873 32.5926 4 23.48 4C21.172 4 18.9746 4.47388 16.98 5.32964M13.98 33.9924V44M13.98 33.9924C11.2585 32.0728 9.14374 29.3504 7.97998 26.17M13.98 33.9924C15.4813 35.0514 17.1672 35.8662 18.98 36.379" stroke="white" stroke-width="1.5" stroke-linecap="round" stroke-linejoin="round"/>
<path d="M6.47998 6.5L12.98 11H20.98M7.97998 6.5C7.97998 7.32842 7.3084 8 6.47998 8C5.65156 8 4.97998 7.32842 4.97998 6.5C4.97998 5.67158 5.65156 5 6.47998 5C7.3084 5 7.97998 5.67158 7.97998 6.5Z" stroke="white" stroke-width="1.5" stroke-linecap="round" stroke-linejoin="round"/>
<path d="M6.47998 17.5H20.98M7.97998 17.5C7.97998 18.3284 7.3084 19 6.47998 19C5.65156 19 4.97998 18.3284 4.97998 17.5C4.97998 16.6716 5.65156 16 6.47998 16C7.3084 16 7.97998 16.6716 7.97998 17.5Z" stroke="white" stroke-width="1.5" stroke-linecap="round" stroke-linejoin="round"/>
</svg>
