<svg width="49" height="49" viewBox="0 0 49 49" fill="none" xmlns="http://www.w3.org/2000/svg">
<path d="M40.066 4.5H13.98C11.2186 4.5 8.97998 6.73858 8.97998 9.5C8.97998 9.5908 8.9824 9.68106 8.98718 9.77066M8.98718 9.77066C9.12778 12.4062 11.3094 14.5 13.98 14.5H32.98C36.7512 14.5 38.6368 14.5 39.8084 15.6716C40.98 16.8431 40.98 18.7288 40.98 22.5V36.5C40.98 40.2712 40.98 42.1568 39.8084 43.3284C38.6368 44.5 36.7512 44.5 32.98 44.5H20.9872C15.3303 44.5 12.5019 44.5 10.7445 42.7426C8.98718 40.9852 8.98718 38.1568 8.98718 32.5V9.77066ZM8.98718 9.77066V9.50254M13.98 9.5H32.98C34.8656 9.5 35.8084 9.5 36.3942 10.0858C36.98 10.6716 36.98 11.6144 36.98 13.5" stroke="white" stroke-width="1.5" stroke-linecap="round" stroke-linejoin="round"/>
<path d="M31.98 25.5H17.98M25.98 33.5H17.98" stroke="white" stroke-width="1.5" stroke-linecap="round" stroke-linejoin="round"/>
</svg>
