<svg width="49" height="48" viewBox="0 0 49 48" fill="none" xmlns="http://www.w3.org/2000/svg">
<path d="M8.97998 16C8.97998 10.3431 8.97998 7.51472 10.9884 5.75736C12.9968 4 16.2293 4 22.6942 4H27.2658C33.7306 4 36.9632 4 38.9716 5.75736C40.98 7.51472 40.98 10.3431 40.98 16V34H8.97998V16Z" stroke="white" stroke-width="1.5" stroke-linejoin="round"/>
<path d="M6.97998 34H42.98" stroke="white" stroke-width="1.5" stroke-linecap="round"/>
<path d="M22.3774 11.1318C24.8378 10.7791 28.9148 10.9202 25.5406 14.3053C21.323 18.5367 14.9967 28.0578 22.3774 24.8842C29.7582 21.7108 32.9218 23.8264 29.7586 27" stroke="white" stroke-width="1.5" stroke-linecap="round" stroke-linejoin="round"/>
<path d="M24.98 34V42" stroke="white" stroke-width="1.5" stroke-linecap="round"/>
<path d="M10.98 44L16.98 34" stroke="white" stroke-width="1.5" stroke-linecap="round"/>
<path d="M38.98 44L32.98 34" stroke="white" stroke-width="1.5" stroke-linecap="round"/>
</svg>
