<svg width="49" height="49" viewBox="0 0 49 49" fill="none" xmlns="http://www.w3.org/2000/svg">
<path d="M40.98 44.5004V38.5004C40.98 32.8436 40.98 30.0152 39.2226 28.2578C37.4652 26.5004 34.6368 26.5004 28.98 26.5004L24.98 30.5004L20.98 26.5004C15.3231 26.5004 12.4947 26.5004 10.7373 28.2578C8.97998 30.0152 8.97998 32.8436 8.97998 38.5004V44.5004" stroke="white" stroke-width="1.5" stroke-linecap="round" stroke-linejoin="round"/>
<path d="M31.98 13.5002V11.5002C31.98 7.63426 28.846 4.50024 24.98 4.50024C21.114 4.50024 17.98 7.63426 17.98 11.5002V13.5002C17.98 17.3662 21.114 20.5002 24.98 20.5002C28.846 20.5002 31.98 17.3662 31.98 13.5002Z" stroke="white" stroke-width="1.5" stroke-linecap="round" stroke-linejoin="round"/>
<path d="M32.98 32.5002V38.5002M35.98 35.5002H29.98" stroke="white" stroke-width="1.5" stroke-linecap="round" stroke-linejoin="round"/>
</svg>
