<svg width="49" height="49" viewBox="0 0 49 49" fill="none" xmlns="http://www.w3.org/2000/svg">
<path d="M24.98 44.5C36.0257 44.5 44.98 35.5457 44.98 24.5C44.98 13.4543 36.0257 4.5 24.98 4.5C13.9343 4.5 4.97998 13.4543 4.97998 24.5C4.97998 35.5457 13.9343 44.5 24.98 44.5Z" stroke="white" stroke-width="1.5"/>
<path d="M14.98 17.2586H23.98M23.98 17.2586H29.98M23.98 17.2586V14.5M34.98 17.2586H29.98M29.98 17.2586C28.925 21.0312 26.7158 24.5974 24.1942 27.7316M24.1942 27.7316C22.1062 30.3268 19.8041 32.6256 17.7657 34.5M24.1942 27.7316C22.9086 26.2242 21.1086 23.7852 20.5943 22.6818M24.1942 27.7316L28.0514 31.7414" stroke="white" stroke-width="1.5" stroke-linecap="round" stroke-linejoin="round"/>
</svg>
