<svg width="49" height="49" viewBox="0 0 49 49" fill="none" xmlns="http://www.w3.org/2000/svg">
<path d="M26.98 30.5C22.3966 42.5 9.56332 30.5 4.97998 42.5" stroke="white" stroke-width="1.5" stroke-linecap="round" stroke-linejoin="round"/>
<path d="M31.98 30.5H34.9826C39.6966 30.5 42.0536 30.5 43.5182 29.0356C44.9826 27.571 44.9826 25.214 44.9826 20.5V16.5C44.9826 11.786 44.9826 9.42894 43.5182 7.96446C42.0536 6.5 39.6966 6.5 34.9826 6.5H26.9826C22.2686 6.5 19.9115 6.5 18.447 7.96446C17.2062 9.20528 17.0167 11.0869 16.9878 14.5" stroke="white" stroke-width="1.5" stroke-linecap="round" stroke-linejoin="round"/>
<path d="M15.98 30.5C18.7414 30.5 20.98 28.2614 20.98 25.5C20.98 22.7386 18.7414 20.5 15.98 20.5C13.2186 20.5 10.98 22.7386 10.98 25.5C10.98 28.2614 13.2186 30.5 15.98 30.5Z" stroke="white" stroke-width="1.5" stroke-linecap="round" stroke-linejoin="round"/>
<path d="M24.98 14.5H36.98M36.98 22.5H30.98" stroke="white" stroke-width="1.5" stroke-linecap="round" stroke-linejoin="round"/>
</svg>
