<svg width="36" height="47" viewBox="0 0 36 47" fill="none" xmlns="http://www.w3.org/2000/svg">
<path d="M19.5628 18.3462C19.8864 17.3769 21.2502 17.3769 21.5738 18.3462L23.4692 24.0363C23.8853 25.2868 24.5864 26.4233 25.5264 27.3556C26.4587 28.2871 27.5914 28.9898 28.8396 29.4058L34.5335 31.3005C35.4966 31.6233 35.4966 32.9925 34.5335 33.3153L28.8396 35.2099C27.5914 35.6275 26.451 36.3302 25.5187 37.2625C24.5864 38.1948 23.8853 39.3321 23.4692 40.5826L21.5738 46.2696C21.5044 46.4822 21.3734 46.6672 21.1885 46.7982C21.0113 46.9291 20.7879 47 20.5645 47C20.341 47 20.1253 46.9291 19.948 46.7982C19.7631 46.6672 19.6321 46.4822 19.5628 46.2696L17.6674 40.5803C17.2514 39.3298 16.5502 38.1933 15.6179 37.261C14.6856 36.3295 13.5453 35.6268 12.2971 35.2099L6.60317 33.3153C6.39513 33.246 6.21018 33.1111 6.07919 32.9301C5.94821 32.749 5.87886 32.5317 5.87886 32.3083C5.87886 32.0848 5.94821 31.8668 6.07919 31.6857C6.21018 31.5047 6.39513 31.3698 6.60317 31.3005L12.2971 29.4058C13.5453 28.989 14.6856 28.2871 15.6179 27.3548C16.5502 26.4225 17.2514 25.2868 17.6674 24.0363L19.5628 18.3462ZM8.21347 3.36784C8.25199 3.24071 8.33679 3.12975 8.44465 3.05116C8.55252 2.97257 8.68349 2.93096 8.81448 2.93096C8.95316 2.93096 9.08414 2.97257 9.19201 3.05116C9.29988 3.12975 9.38458 3.24071 9.4231 3.36784L10.5635 6.78112C11.072 8.30284 12.2585 9.49557 13.7841 10.0033L17.1974 11.1406C17.3207 11.1822 17.4362 11.2638 17.5133 11.3725C17.5903 11.4811 17.6366 11.6113 17.6366 11.7454C17.6366 11.8795 17.5903 12.0104 17.5133 12.1191C17.4362 12.2277 17.3207 12.3086 17.1974 12.351L13.7841 13.4875C13.029 13.7371 12.351 14.1585 11.7886 14.7179C11.2338 15.2773 10.8101 15.9592 10.5635 16.7097L9.4231 20.1229C9.38458 20.2508 9.29988 20.361 9.19201 20.4396C9.08414 20.5182 8.95316 20.5606 8.81448 20.5606C8.68349 20.5606 8.55252 20.5182 8.44465 20.4396C8.33679 20.361 8.25199 20.2508 8.21347 20.1229L7.07316 16.7097C6.8266 15.9592 6.40285 15.2773 5.8481 14.7179C5.28564 14.1585 4.60754 13.7371 3.85246 13.4875L0.439233 12.351C0.315954 12.3086 0.200354 12.2277 0.123305 12.1191C0.0462558 12.0104 0 11.8795 0 11.7454C0 11.6113 0.0462558 11.4811 0.123305 11.3725C0.200354 11.2638 0.315954 11.1822 0.439233 11.1406L3.85246 10.0033C4.60754 9.75368 5.28564 9.33223 5.8481 8.77286C6.40285 8.21348 6.8266 7.53158 7.07316 6.78112L8.21347 3.36784ZM28.9782 0.28663C29.009 0.202646 29.063 0.130205 29.1323 0.0785823C29.2094 0.0277298 29.2941 0 29.3789 0C29.4713 0 29.5561 0.0277298 29.6255 0.0785823C29.7025 0.130205 29.7564 0.202646 29.7795 0.28663L30.5423 2.55959C30.8813 3.57664 31.675 4.37257 32.692 4.71004L34.9649 5.46822C35.0497 5.49672 35.119 5.5514 35.173 5.62383C35.2269 5.69548 35.25 5.78178 35.25 5.87039C35.25 5.959 35.2269 6.04528 35.173 6.11771C35.119 6.18936 35.0497 6.24406 34.9649 6.27257L32.692 7.03074C32.1912 7.19716 31.7366 7.47842 31.3591 7.85211C30.9892 8.22503 30.7041 8.68037 30.5423 9.18119L29.7795 11.4549C29.7564 11.5381 29.7025 11.6106 29.6255 11.6622C29.5561 11.7138 29.4713 11.7408 29.3789 11.7408C29.2941 11.7408 29.2094 11.7138 29.1323 11.6622C29.063 11.6106 29.009 11.5381 28.9782 11.4549L28.2231 9.18119C28.0536 8.68037 27.7763 8.22503 27.3987 7.85211C27.0289 7.47842 26.5743 7.19716 26.0735 7.03074L23.8005 6.27257C23.7158 6.24406 23.6464 6.18936 23.5925 6.11771C23.5385 6.04528 23.5154 5.959 23.5154 5.87039C23.5154 5.78178 23.5385 5.69548 23.5925 5.62383C23.6464 5.5514 23.7158 5.49672 23.8005 5.46822L26.0735 4.71004C27.0906 4.37257 27.8841 3.57664 28.2231 2.55959L28.9782 0.288934V0.28663Z" fill="url(#paint0_linear_207_2818)"/>
<defs>
<linearGradient id="paint0_linear_207_2818" x1="0" y1="0" x2="38.2185" y2="2.54721" gradientUnits="userSpaceOnUse">
<stop stop-color="#677AE4"/>
<stop offset="1" stop-color="#754FA8"/>
</linearGradient>
</defs>
</svg>
