<svg width="41" height="26" viewBox="0 0 41 26" fill="none" xmlns="http://www.w3.org/2000/svg">
<g clip-path="url(#clip0_231_3384)">
<path d="M4.51106 1.66615C4.51106 1.18261 4.90363 0.790039 5.38717 0.790039H15.5456C15.8628 0.790018 16.1644 0.927525 16.3724 1.16698L18.601 3.7331C18.809 3.97272 19.1106 4.11039 19.4279 4.11048H35.5055C35.9892 4.1106 36.3813 4.50268 36.3814 4.98637V24.6639C36.3814 25.1478 35.9891 25.54 35.5053 25.54H5.38717C4.90363 25.54 4.51106 25.1475 4.51106 24.6639V1.66615" fill="#754FA8"/>
</g>
<g clip-path="url(#clip1_231_3384)">
<path d="M10.5 3.04004H30.5V25.54H10.5" fill="#DBA1FF"/>
</g>
<g clip-path="url(#clip2_231_3384)">
<path d="M3.57992 11.37C3.5637 11.0787 3.66809 10.7936 3.86855 10.5817C4.06901 10.3697 4.34788 10.2496 4.63961 10.2496H15.8702C16.1642 10.2496 16.4516 10.1625 16.696 9.99911L18.1601 9.02051C18.4045 8.85717 18.6918 8.77 18.9858 8.77002H36.519C36.7627 8.77004 36.9947 8.87482 37.1559 9.05769C37.3171 9.24055 37.3919 9.48387 37.3613 9.7257L35.4535 24.7975C35.3998 25.2219 35.0388 25.5401 34.611 25.54H5.1701C4.71944 25.54 4.34727 25.188 4.32226 24.738L3.57992 11.37" fill="url(#paint0_linear_231_3384)"/>
</g>
<defs>
<linearGradient id="paint0_linear_231_3384" x1="3.5" y1="8.77002" x2="39.3573" y2="15.2292" gradientUnits="userSpaceOnUse">
<stop stop-color="#677AE4"/>
<stop offset="1" stop-color="#754FA8"/>
</linearGradient>
<clipPath id="clip0_231_3384">
<rect width="32" height="24.75" fill="white" transform="translate(4.5 0.790039)"/>
</clipPath>
<clipPath id="clip1_231_3384">
<rect width="20" height="22.5" fill="white" transform="translate(10.5 3.04004)"/>
</clipPath>
<clipPath id="clip2_231_3384">
<rect width="34" height="16.77" fill="white" transform="translate(3.5 8.77002)"/>
</clipPath>
</defs>
</svg>
