<svg width="20" height="20" viewBox="0 0 20 20" fill="none" xmlns="http://www.w3.org/2000/svg">
<path d="M1.66699 6.66667C1.66699 6.66667 5.39795 2.5 10.0003 2.5C14.6027 2.5 18.3337 6.66667 18.3337 6.66667" stroke="#754FA8" stroke-width="1.5" stroke-linecap="round"/>
<path d="M17.9537 10.8709C18.207 11.2261 18.3337 11.4038 18.3337 11.6667C18.3337 11.9296 18.207 12.1073 17.9537 12.4625C16.8152 14.0589 13.908 17.5 10.0003 17.5C6.09264 17.5 3.18541 14.0589 2.04703 12.4625C1.79367 12.1073 1.66699 11.9296 1.66699 11.6667C1.66699 11.4038 1.79367 11.2261 2.04703 10.8709C3.18541 9.27454 6.09264 5.83337 10.0003 5.83337C13.908 5.83337 16.8152 9.27454 17.9537 10.8709Z" stroke="#754FA8" stroke-width="1.5"/>
<path d="M12.5 11.6666C12.5 10.2859 11.3807 9.16663 10 9.16663C8.61925 9.16663 7.5 10.2859 7.5 11.6666C7.5 13.0474 8.61925 14.1666 10 14.1666C11.3807 14.1666 12.5 13.0474 12.5 11.6666Z" stroke="#754FA8" stroke-width="1.5"/>
</svg>
